<svg xmlns="http://www.w3.org/2000/svg" viewBox="0 0 480 270" width="480" height="270"><defs><linearGradient id="g" x1="0" y1="0" x2="1" y2="1"><stop offset="0" stop-color="#8a8f98"/><stop offset="1" stop-color="#141414"/></linearGradient></defs><rect width="480" height="270" fill="url(#g)"/><rect x="0" y="0" width="480" height="34" fill="#141414" opacity="0.5"/><rect x="0" y="236" width="480" height="34" fill="#141414" opacity="0.5"/><rect x="18" y="9" width="26" height="16" rx="3" fill="#ffffff" opacity="0.5"/><rect x="18" y="245" width="26" height="16" rx="3" fill="#ffffff" opacity="0.5"/><rect x="70" y="9" width="26" height="16" rx="3" fill="#ffffff" opacity="0.5"/><rect x="70" y="245" width="26" height="16" rx="3" fill="#ffffff" opacity="0.5"/><rect x="122" y="9" width="26" height="16" rx="3" fill="#ffffff" opacity="0.5"/><rect x="122" y="245" width="26" height="16" rx="3" fill="#ffffff" opacity="0.5"/><rect x="174" y="9" width="26" height="16" rx="3" fill="#ffffff" opacity="0.5"/><rect x="174" y="245" width="26" height="16" rx="3" fill="#ffffff" opacity="0.5"/><rect x="226" y="9" width="26" height="16" rx="3" fill="#ffffff" opacity="0.5"/><rect x="226" y="245" width="26" height="16" rx="3" fill="#ffffff" opacity="0.5"/><rect x="278" y="9" width="26" height="16" rx="3" fill="#ffffff" opacity="0.5"/><rect x="278" y="245" width="26" height="16" rx="3" fill="#ffffff" opacity="0.5"/><rect x="330" y="9" width="26" height="16" rx="3" fill="#ffffff" opacity="0.5"/><rect x="330" y="245" width="26" height="16" rx="3" fill="#ffffff" opacity="0.5"/><rect x="382" y="9" width="26" height="16" rx="3" fill="#ffffff" opacity="0.5"/><rect x="382" y="245" width="26" height="16" rx="3" fill="#ffffff" opacity="0.5"/><rect x="434" y="9" width="26" height="16" rx="3" fill="#ffffff" opacity="0.5"/><rect x="434" y="245" width="26" height="16" rx="3" fill="#ffffff" opacity="0.5"/><circle cx="240" cy="135" r="42" fill="#ffffff" opacity="0.22"/><path d="M226 112 L272 135 L226 158 Z" fill="#ffffff" opacity="0.85"/></svg>